# xmcd
#
# Track frame offsets: 
#        150
#        20880
#        45182
#        59490
#        80845
#        93956
#        113709
#        137446
#        158870
#        173012
#        190319
#        205804
#        229108
#        250022
#
# Disc length: 3500 seconds
#
# Revision: 0
# Processed by: cddbd v1.5.2PL0 Copyright (c) Steve Scherf et al.
# Submitted via: ExactAudioCopy v1.0b4
#
DISCID=b30daa0e
DTITLE=Lightnin Malcolm - Outlaw Justice
DYEAR=2017
DGENRE=Blues
TTITLE0=Country Store
TTITLE1=Ain't No Place
TTITLE2=Big Rock
TTITLE3=Man Who Ruled
TTITLE4=Nuclear Fallout Cave
TTITLE5=Cold Blooded Killer
TTITLE6=Masters Hand
TTITLE7=Mighty Thin
TTITLE8=High Water
TTITLE9=Last Cowboy Outlaw
TTITLE10=Justice Department
TTITLE11=Oonada
TTITLE12=Just My Job
TTITLE13=Terror Waves
EXTD=
EXTT0=
EXTT1=
EXTT2=
EXTT3=
EXTT4=
EXTT5=
EXTT6=
EXTT7=
EXTT8=
EXTT9=
EXTT10=
EXTT11=
EXTT12=
EXTT13=
PLAYORDER=
